<?xml version="1.0" encoding="UTF-8"?> <svg xmlns="http://www.w3.org/2000/svg" width="517" height="406" viewBox="0 0 517 406" fill="none"> <g clip-path="url(#clip0_2111_32100)"> <path d="M569.072 345.512H-50.832V345.883H569.072V345.512Z" fill="#EBEBEB"></path> <path d="M506.958 365.456H465.92V365.827H506.958V365.456Z" fill="#EBEBEB"></path> <path d="M359.792 368.8H349.006V369.172H359.792V368.8Z" fill="#EBEBEB"></path> <path d="M464.68 353.935H440.876V354.307H464.68V353.935Z" fill="#EBEBEB"></path> <path d="M67.8175 356.041H14.2578V356.413H67.8175V356.041Z" fill="#EBEBEB"></path> <path d="M86.6623 356.041H78.8516V356.413H86.6623V356.041Z" fill="#EBEBEB"></path> <path d="M228.373 361.244H112.203V361.616H228.373V361.244Z" fill="#EBEBEB"></path> <path d="M506.958 10.1782H376.158V345.388H506.958V10.1782Z" fill="#EBEBEB"></path> <path d="M506.958 10.1782H483.897V345.388H506.958V10.1782Z" fill="#F5F5F5"></path> <path d="M405.17 24.3002H387.192V57.0035H405.17V24.3002Z" fill="#E6E6E6"></path> <path d="M427.362 24.3002H409.385V57.0035H427.362V24.3002Z" fill="#E6E6E6"></path> <path d="M449.679 24.3002H431.702V57.0035H449.679V24.3002Z" fill="#E6E6E6"></path> <path d="M471.996 24.3002H454.019V57.0035H471.996V24.3002Z" fill="#E6E6E6"></path> <path d="M405.17 66.6659H387.192V99.3692H405.17V66.6659Z" fill="#E6E6E6"></path> <path d="M427.362 66.6659H409.385V99.3692H427.362V66.6659Z" fill="#E6E6E6"></path> <path d="M449.679 66.6659H431.702V99.3692H449.679V66.6659Z" fill="#E6E6E6"></path> <path d="M471.996 66.6659H454.019V99.3692H471.996V66.6659Z" fill="#E6E6E6"></path> <path d="M405.17 109.032H387.192V141.735H405.17V109.032Z" fill="#E6E6E6"></path> <path d="M427.362 109.032H409.385V141.735H427.362V109.032Z" fill="#E6E6E6"></path> <path d="M449.679 109.032H431.702V141.735H449.679V109.032Z" fill="#E6E6E6"></path> <path d="M471.996 109.032H454.019V141.735H471.996V109.032Z" fill="#E6E6E6"></path> <path d="M405.17 151.273H387.192V183.977H405.17V151.273Z" fill="#E6E6E6"></path> <path d="M427.362 151.273H409.385V183.977H427.362V151.273Z" fill="#E6E6E6"></path> <path d="M449.679 151.273H431.702V183.977H449.679V151.273Z" fill="#E6E6E6"></path> <path d="M471.996 151.273H454.019V183.977H471.996V151.273Z" fill="#E6E6E6"></path> <path d="M405.17 193.639H387.192V226.343H405.17V193.639Z" fill="#E6E6E6"></path> <path d="M427.362 193.639H409.385V226.343H427.362V193.639Z" fill="#E6E6E6"></path> <path d="M449.679 193.639H431.702V226.343H449.679V193.639Z" fill="#E6E6E6"></path> <path d="M471.996 193.639H454.019V226.343H471.996V193.639Z" fill="#E6E6E6"></path> <path d="M405.17 236.005H387.192V268.708H405.17V236.005Z" fill="#E6E6E6"></path> <path d="M427.362 236.005H409.385V268.708H427.362V236.005Z" fill="#E6E6E6"></path> <path d="M449.679 236.005H431.702V268.708H449.679V236.005Z" fill="#E6E6E6"></path> <path d="M471.996 236.005H454.019V268.708H471.996V236.005Z" fill="#E6E6E6"></path> <path d="M308.34 66.9136H99.9287V344.149H308.34V66.9136Z" fill="#F0F0F0"></path> <path d="M270.526 73.8507H104.392V111.385H270.526V73.8507Z" fill="#E6E6E6"></path> <path d="M270.526 118.818H104.392V156.352H270.526V118.818Z" fill="#E6E6E6"></path> <path d="M270.526 163.785H104.392V201.319H270.526V163.785Z" fill="#E6E6E6"></path> <path d="M270.526 208.628H104.392V246.163H270.526V208.628Z" fill="#E6E6E6"></path> <path d="M270.526 253.595H104.392V291.13H270.526V253.595Z" fill="#E6E6E6"></path> <path d="M270.526 298.562H104.392V336.097H270.526V298.562Z" fill="#E6E6E6"></path> <path d="M308.217 66.9136H278.957V344.149H308.217V66.9136Z" fill="#F5F5F5"></path> <path d="M136.999 86.4861H119.021V111.509H136.999V86.4861Z" fill="#EBEBEB"></path> <path d="M160.803 86.4861H142.826V111.509H160.803V86.4861Z" fill="#EBEBEB"></path> <path d="M184.607 86.4861H166.63V111.509H184.607V86.4861Z" fill="#EBEBEB"></path> <path d="M208.536 86.4861H190.559V111.509H208.536V86.4861Z" fill="#EBEBEB"></path> <path d="M232.34 86.4861H214.362V111.509H232.34V86.4861Z" fill="#EBEBEB"></path> <path d="M256.144 86.4861H238.167V111.509H256.144V86.4861Z" fill="#EBEBEB"></path> <path d="M136.256 131.329H118.278V156.352H136.256V131.329Z" fill="#EBEBEB"></path> <path d="M160.06 131.329H142.083V156.352H160.06V131.329Z" fill="#EBEBEB"></path> <path d="M183.988 131.329H166.011V156.352H183.988V131.329Z" fill="#EBEBEB"></path> <path d="M207.793 131.329H189.815V156.352H207.793V131.329Z" fill="#EBEBEB"></path> <path d="M231.596 131.329H213.619V156.352H231.596V131.329Z" fill="#EBEBEB"></path> <path d="M255.525 131.329H237.548V156.352H255.525V131.329Z" fill="#EBEBEB"></path> <path d="M135.511 176.173H117.534V201.196H135.511V176.173Z" fill="#EBEBEB"></path> <path d="M159.316 176.173H141.339V201.196H159.316V176.173Z" fill="#EBEBEB"></path> <path d="M183.244 176.173H165.267V201.196H183.244V176.173Z" fill="#EBEBEB"></path> <path d="M207.049 176.173H189.071V201.196H207.049V176.173Z" fill="#EBEBEB"></path> <path d="M230.852 176.173H212.875V201.196H230.852V176.173Z" fill="#EBEBEB"></path> <path d="M254.781 176.173H236.804V201.196H254.781V176.173Z" fill="#EBEBEB"></path> <path d="M134.767 221.016H116.79V246.039H134.767V221.016Z" fill="#EBEBEB"></path> <path d="M158.572 221.016H140.595V246.039H158.572V221.016Z" fill="#EBEBEB"></path> <path d="M182.5 221.016H164.522V246.039H182.5V221.016Z" fill="#EBEBEB"></path> <path d="M206.304 221.016H188.327V246.039H206.304V221.016Z" fill="#EBEBEB"></path> <path d="M230.108 221.016H212.131V246.039H230.108V221.016Z" fill="#EBEBEB"></path> <path d="M254.037 221.016H236.06V246.039H254.037V221.016Z" fill="#EBEBEB"></path> <path d="M134.023 265.859H116.046V290.882H134.023V265.859Z" fill="#EBEBEB"></path> <path d="M157.952 265.859H139.975V290.882H157.952V265.859Z" fill="#EBEBEB"></path> <path d="M181.756 265.859H163.778V290.882H181.756V265.859Z" fill="#EBEBEB"></path> <path d="M205.56 265.859H187.583V290.882H205.56V265.859Z" fill="#EBEBEB"></path> <path d="M229.488 265.859H211.511V290.882H229.488V265.859Z" fill="#EBEBEB"></path> <path d="M253.293 265.859H235.315V290.882H253.293V265.859Z" fill="#EBEBEB"></path> <path d="M133.28 310.702H115.303V335.725H133.28V310.702Z" fill="#EBEBEB"></path> <path d="M157.209 310.702H139.231V335.725H157.209V310.702Z" fill="#EBEBEB"></path> <path d="M181.012 310.702H163.035V335.725H181.012V310.702Z" fill="#EBEBEB"></path> <path d="M204.817 310.702H186.84V335.725H204.817V310.702Z" fill="#EBEBEB"></path> <path d="M228.745 310.702H210.768V335.725H228.745V310.702Z" fill="#EBEBEB"></path> <path d="M252.549 310.702H234.572V335.725H252.549V310.702Z" fill="#EBEBEB"></path> <path d="M222.67 57.1274H14.2578V344.149H222.67V57.1274Z" fill="#F0F0F0"></path> <path d="M184.732 64.3123H18.5977V103.209H184.732V64.3123Z" fill="#E6E6E6"></path> <path d="M184.732 110.766H18.5977V149.663H184.732V110.766Z" fill="#E6E6E6"></path> <path d="M184.732 157.344H18.5977V196.241H184.732V157.344Z" fill="#E6E6E6"></path> <path d="M184.732 203.797H18.5977V242.694H184.732V203.797Z" fill="#E6E6E6"></path> <path d="M184.732 250.375H18.5977V289.272H184.732V250.375Z" fill="#E6E6E6"></path> <path d="M184.732 296.952H18.5977V335.849H184.732V296.952Z" fill="#E6E6E6"></path> <path d="M222.546 57.1274H193.286V344.149H222.546V57.1274Z" fill="#F5F5F5"></path> <path d="M51.2038 77.3193H33.2266V103.21H51.2038V77.3193Z" fill="#EBEBEB"></path> <path d="M75.1325 77.3193H57.1553V103.21H75.1325V77.3193Z" fill="#EBEBEB"></path> <path d="M98.9362 77.3193H80.959V103.21H98.9362V77.3193Z" fill="#EBEBEB"></path> <path d="M122.741 77.3193H104.764V103.21H122.741V77.3193Z" fill="#EBEBEB"></path> <path d="M146.669 77.3193H128.691V103.21H146.669V77.3193Z" fill="#EBEBEB"></path> <path d="M170.473 77.3193H152.496V103.21H170.473V77.3193Z" fill="#EBEBEB"></path> <path d="M50.4606 123.773H32.4834V149.663H50.4606V123.773Z" fill="#EBEBEB"></path> <path d="M74.3893 123.773H56.4121V149.663H74.3893V123.773Z" fill="#EBEBEB"></path> <path d="M98.193 123.773H80.2158V149.663H98.193V123.773Z" fill="#EBEBEB"></path> <path d="M121.998 123.773H104.021V149.663H121.998V123.773Z" fill="#EBEBEB"></path> <path d="M145.925 123.773H127.948V149.663H145.925V123.773Z" fill="#EBEBEB"></path> <path d="M169.73 123.773H151.753V149.663H169.73V123.773Z" fill="#EBEBEB"></path> <path d="M49.7165 170.227H31.7393V196.117H49.7165V170.227Z" fill="#EBEBEB"></path> <path d="M73.6452 170.227H55.668V196.117H73.6452V170.227Z" fill="#EBEBEB"></path> <path d="M97.4489 170.227H79.4717V196.117H97.4489V170.227Z" fill="#EBEBEB"></path> <path d="M121.378 170.227H103.4V196.117H121.378V170.227Z" fill="#EBEBEB"></path> <path d="M145.181 170.227H127.204V196.117H145.181V170.227Z" fill="#EBEBEB"></path> <path d="M168.986 170.227H151.009V196.117H168.986V170.227Z" fill="#EBEBEB"></path> <path d="M49.0964 216.556H31.1191V242.447H49.0964V216.556Z" fill="#EBEBEB"></path> <path d="M72.901 216.556H54.9238V242.447H72.901V216.556Z" fill="#EBEBEB"></path> <path d="M96.7048 216.556H78.7275V242.447H96.7048V216.556Z" fill="#EBEBEB"></path> <path d="M120.633 216.556H102.656V242.447H120.633V216.556Z" fill="#EBEBEB"></path> <path d="M144.437 216.556H126.46V242.447H144.437V216.556Z" fill="#EBEBEB"></path> <path d="M168.242 216.556H150.265V242.447H168.242V216.556Z" fill="#EBEBEB"></path> <path d="M48.3522 263.01H30.375V288.9H48.3522V263.01Z" fill="#EBEBEB"></path> <path d="M72.1569 263.01H54.1797V288.9H72.1569V263.01Z" fill="#EBEBEB"></path> <path d="M95.9606 263.01H77.9834V288.9H95.9606V263.01Z" fill="#EBEBEB"></path> <path d="M119.889 263.01H101.912V288.9H119.889V263.01Z" fill="#EBEBEB"></path> <path d="M143.693 263.01H125.716V288.9H143.693V263.01Z" fill="#EBEBEB"></path> <path d="M167.498 263.01H149.521V288.9H167.498V263.01Z" fill="#EBEBEB"></path> <path d="M47.6091 309.464H29.6318V335.354H47.6091V309.464Z" fill="#EBEBEB"></path> <path d="M71.4137 309.464H53.4365V335.354H71.4137V309.464Z" fill="#EBEBEB"></path> <path d="M95.3415 309.464H77.3643V335.354H95.3415V309.464Z" fill="#EBEBEB"></path> <path d="M119.146 309.464H101.169V335.354H119.146V309.464Z" fill="#EBEBEB"></path> <path d="M142.95 309.464H124.973V335.354H142.95V309.464Z" fill="#EBEBEB"></path> <path d="M166.879 309.464H148.901V335.354H166.879V309.464Z" fill="#EBEBEB"></path> <path d="M259.12 401.38C391.888 401.38 499.518 395.113 499.518 387.382C499.518 379.651 391.888 373.384 259.12 373.384C126.351 373.384 18.7207 379.651 18.7207 387.382C18.7207 395.113 126.351 401.38 259.12 401.38Z" fill="#F5F5F5"></path> <path d="M50.2127 353.068C50.2127 353.068 43.2698 337.831 51.2045 322.718C59.2633 307.606 61.4949 304.137 56.4117 301.04C51.3285 297.943 48.9729 313.056 48.9729 313.056C48.9729 313.056 44.6336 302.65 48.229 291.749C51.8244 280.848 54.0561 263.134 49.0969 261.276C44.2616 259.418 48.229 283.45 44.0137 291.625C44.0137 291.625 40.4182 282.459 39.9223 273.787C39.3024 264.992 40.2942 251.118 36.4508 247.525C32.6074 243.933 30.1278 246.411 33.9712 265.735C37.6906 285.06 37.6906 300.668 37.6906 300.668C37.6906 300.668 29.3839 275.398 23.8048 274.654C18.2256 273.911 18.2256 282.087 23.0609 289.272C27.8961 296.333 37.0707 309.092 38.5585 315.657C38.5585 315.657 29.3839 296.581 21.2012 302.403C13.0184 308.225 28.3921 319.745 35.211 323.957C42.03 328.169 46.7412 354.183 46.7412 354.183L50.2127 353.068Z" fill="#718497"></path> <path opacity="0.6" d="M50.2127 353.068C50.2127 353.068 43.2698 337.831 51.2045 322.718C59.2633 307.606 61.4949 304.137 56.4117 301.04C51.3285 297.943 48.9729 313.056 48.9729 313.056C48.9729 313.056 44.6336 302.65 48.229 291.749C51.8244 280.848 54.0561 263.134 49.0969 261.276C44.2616 259.418 48.229 283.45 44.0137 291.625C44.0137 291.625 40.4182 282.459 39.9223 273.787C39.3024 264.992 40.2942 251.118 36.4508 247.525C32.6074 243.933 30.1278 246.411 33.9712 265.735C37.6906 285.06 37.6906 300.668 37.6906 300.668C37.6906 300.668 29.3839 275.398 23.8048 274.654C18.2256 273.911 18.2256 282.087 23.0609 289.272C27.8961 296.333 37.0707 309.092 38.5585 315.657C38.5585 315.657 29.3839 296.581 21.2012 302.403C13.0184 308.225 28.3921 319.745 35.211 323.957C42.03 328.169 46.7412 354.183 46.7412 354.183L50.2127 353.068Z" fill="white"></path> <path d="M44.6338 359.262C44.6338 359.262 51.4528 343.901 43.2701 328.912C35.0873 313.923 32.7317 310.455 37.8149 307.358C42.8981 304.137 45.3777 319.25 45.3777 319.25C45.3777 319.25 49.5931 308.72 45.8736 297.943C42.1542 287.166 39.7986 269.452 44.6338 267.47C49.4691 265.488 45.8736 289.52 50.089 297.695C50.089 297.695 53.5605 288.529 53.9324 279.733C54.4283 270.938 53.3125 257.064 57.1559 253.348C60.9993 249.755 63.4789 252.109 59.8835 271.557C56.412 290.882 56.536 306.615 56.536 306.615C56.536 306.615 64.5948 281.22 70.0499 280.353C75.6291 279.486 75.753 287.785 71.0418 294.97C66.3305 302.155 57.2799 315.038 55.9161 321.604C55.9161 321.604 64.8427 302.403 73.0255 308.101C81.3322 313.799 66.0825 325.568 59.2636 329.779C52.4446 333.991 47.9813 360.129 47.9813 360.129L44.6338 359.262Z" fill="#718497"></path> <path opacity="0.7" d="M44.6338 359.262C44.6338 359.262 51.4528 343.901 43.2701 328.912C35.0873 313.923 32.7317 310.455 37.8149 307.358C42.8981 304.137 45.3777 319.25 45.3777 319.25C45.3777 319.25 49.5931 308.72 45.8736 297.943C42.1542 287.166 39.7986 269.452 44.6338 267.47C49.4691 265.488 45.8736 289.52 50.089 297.695C50.089 297.695 53.5605 288.529 53.9324 279.733C54.4283 270.938 53.3125 257.064 57.1559 253.348C60.9993 249.755 63.4789 252.109 59.8835 271.557C56.412 290.882 56.536 306.615 56.536 306.615C56.536 306.615 64.5948 281.22 70.0499 280.353C75.6291 279.486 75.753 287.785 71.0418 294.97C66.3305 302.155 57.2799 315.038 55.9161 321.604C55.9161 321.604 64.8427 302.403 73.0255 308.101C81.3322 313.799 66.0825 325.568 59.2636 329.779C52.4446 333.991 47.9813 360.129 47.9813 360.129L44.6338 359.262Z" fill="white"></path> <path d="M76.1252 348.361H19.8379L24.3012 388.621H71.5379L76.1252 348.361Z" fill="#718497"></path> <path d="M257.881 168.616H177.665V109.032H228.125L232.589 133.807L257.881 143.965V168.616Z" fill="#263238"></path> <path opacity="0.1" d="M257.881 168.616H177.665V109.032H228.125L232.589 133.807L257.881 143.965V168.616Z" fill="white"></path> <path opacity="0.1" d="M220.687 168.616H175.186V109.032H190.931L195.394 133.807L220.687 143.965V168.616Z" fill="white"></path> <path opacity="0.2" d="M226.514 120.428L225.15 113.12H196.263L197.626 120.428H226.514Z" fill="black"></path> <path opacity="0.2" d="M198.122 123.773L199.114 128.976H228.125L227.134 123.773H198.122Z" fill="black"></path> <path opacity="0.3" d="M195.395 133.807H232.589L257.881 143.965H220.687L195.395 133.807Z" fill="white"></path> <path d="M352.478 64.6838C360.288 68.6479 358.057 87.8487 338.096 123.773L324.334 112.624C324.334 112.624 328.797 96.3962 336.98 80.1684C345.039 64.0644 352.478 64.6838 352.478 64.6838Z" fill="#718497"></path> <path opacity="0.4" d="M352.478 64.6838C360.288 68.6479 358.057 87.8487 338.096 123.773L324.334 112.624C324.334 112.624 328.797 96.3962 336.98 80.1684C345.039 64.0644 352.478 64.6838 352.478 64.6838Z" fill="white"></path> <path d="M419.799 151.026H366.487C361.404 178.65 345.534 276.636 356.94 363.969L375.042 361.739C375.042 361.739 373.43 245.915 389.299 203.054C391.159 225.971 393.267 250.375 395.25 263.382C399.838 295.342 409.88 365.084 409.88 365.084H428.229C428.229 365.084 424.51 298.315 422.774 266.85C420.667 232.784 419.799 157.963 419.799 151.026Z" fill="#263238"></path> <path d="M348.634 64.9316C354.213 63.6929 383.224 57.1274 406.781 58.1184C406.781 58.1184 414.344 135.417 421.41 166.882L360.04 177.659C360.04 177.659 346.278 100.732 347.766 66.1704C347.642 65.551 348.138 65.0555 348.634 64.9316Z" fill="#718497"></path> <path opacity="0.6" d="M348.634 64.9316C354.213 63.6929 383.224 57.1274 406.781 58.1184C406.781 58.1184 414.344 135.417 421.41 166.882L360.04 177.659C360.04 177.659 346.278 100.732 347.766 66.1704C347.642 65.551 348.138 65.0555 348.634 64.9316Z" fill="white"></path> <path d="M401.202 57.1273C401.202 57.1273 394.135 86.6099 413.352 111.757L418.064 143.221L423.643 169.359L393.143 177.411L382.233 152.884L381.117 179.889L356.817 183.481L354.213 152.512C354.213 152.512 349.998 127.985 349.006 114.606C349.006 114.606 345.411 83.513 350.99 63.6928L359.049 61.9585C359.049 61.9585 359.545 80.9116 371.695 96.1484C371.695 96.1484 383.225 65.7987 393.639 57.2512L401.202 57.1273Z" fill="#718497"></path> <path opacity="0.2" d="M401.202 57.1273C401.202 57.1273 394.135 86.6099 413.352 111.757L418.064 143.221L423.643 169.359L393.143 177.411L382.233 152.884L381.117 179.889L356.817 183.481L354.213 152.512C354.213 152.512 349.998 127.985 349.006 114.606C349.006 114.606 345.411 83.513 350.99 63.6928L359.049 61.9585C359.049 61.9585 359.545 80.9116 371.695 96.1484C371.695 96.1484 383.225 65.7987 393.639 57.2512L401.202 57.1273Z" fill="black"></path> <path d="M326.937 106.802C326.937 106.802 323.342 116.712 320.49 117.084C317.763 117.455 299.538 86.9816 299.538 86.9816C299.538 86.9816 297.43 80.9117 293.958 79.3013C290.611 77.6909 280.321 71.8687 277.717 73.2313C275.113 74.594 276.477 84.628 276.477 86.8577C276.477 88.8398 285.156 91.8128 287.759 92.3083C290.735 92.9277 292.843 91.8128 292.843 91.8128C292.843 91.8128 307.348 127.613 316.771 133.807C326.193 140.125 340.451 118.694 340.451 118.694L326.937 106.802Z" fill="#FFD5A8"></path> <path d="M321.979 111.881L324.458 109.899L340.204 123.153L337.724 127.613L321.979 111.881Z" fill="#718497"></path> <path opacity="0.3" d="M321.979 111.881L324.458 109.899L340.204 123.153L337.724 127.613L321.979 111.881Z" fill="white"></path> <path d="M372.934 379.082L362.52 380.197L360.66 357.899L370.951 356.784L372.934 379.082Z" fill="#FFD5A8"></path> <path d="M424.758 378.339H414.716L413.848 355.05H423.89L424.758 378.339Z" fill="#FFD5A8"></path> <path d="M413.228 377.224H425.502C425.874 377.224 426.246 377.472 426.37 377.967L428.354 386.886C428.478 387.63 427.982 388.497 427.238 388.621C427.114 388.621 426.99 388.621 426.866 388.621C422.899 388.497 420.047 388.373 415.088 388.373C411.989 388.373 402.814 388.744 398.599 388.744C394.383 388.744 393.887 384.533 395.499 384.161C403.31 382.427 409.137 380.197 411.617 377.967C411.989 377.348 412.608 377.224 413.228 377.224Z" fill="#263238"></path> <path d="M410.005 378.958C409.261 378.958 408.641 378.834 408.021 378.463C407.649 378.091 407.401 377.719 407.525 377.224C407.525 376.976 407.649 376.728 407.897 376.605C409.013 375.985 412.237 377.967 412.609 378.215C412.733 378.215 412.733 378.339 412.733 378.463C412.733 378.587 412.609 378.587 412.609 378.71C411.741 378.834 410.873 378.958 410.005 378.958ZM408.393 376.852C408.269 376.852 408.145 376.852 408.145 376.976C408.021 376.976 408.021 377.1 408.021 377.224C408.021 377.596 408.145 377.843 408.393 378.091C409.509 378.587 410.749 378.71 411.989 378.215C410.873 377.596 409.633 377.1 408.393 376.852Z" fill="#718497"></path> <path d="M412.484 378.587C411.368 377.967 409.384 375.861 409.508 374.746C409.632 374.375 409.88 374.127 410.252 374.127C410.624 374.127 410.996 374.251 411.244 374.375C412.36 375.366 412.608 378.215 412.608 378.339C412.608 378.463 412.608 378.463 412.484 378.587C412.608 378.587 412.608 378.587 412.484 378.587ZM410.5 374.499C410.128 374.499 410.004 374.623 410.004 374.746C409.88 375.366 411.12 377.1 412.236 377.843C412.112 376.728 411.74 375.614 410.996 374.746C410.872 374.623 410.748 374.499 410.5 374.499Z" fill="#718497"></path> <path d="M361.528 376.852H373.802C374.174 376.852 374.546 377.1 374.67 377.596L376.654 386.515C376.778 387.258 376.282 388.125 375.538 388.249C375.414 388.249 375.29 388.249 375.166 388.249C371.199 388.125 368.347 388.001 363.388 388.001C360.288 388.001 351.114 388.373 346.898 388.373C342.683 388.373 342.187 384.161 343.799 383.789C351.61 382.055 357.437 379.825 359.916 377.596C360.288 377.1 360.908 376.852 361.528 376.852Z" fill="#263238"></path> <path d="M358.181 378.587C357.437 378.587 356.817 378.463 356.197 378.091C355.825 377.719 355.577 377.348 355.701 376.852C355.701 376.605 355.825 376.357 356.073 376.233C357.189 375.614 360.413 377.596 360.784 377.843C360.908 377.843 360.908 377.967 360.908 378.091C360.908 378.215 360.784 378.215 360.784 378.339C359.917 378.463 359.049 378.587 358.181 378.587ZM356.693 376.605C356.569 376.605 356.445 376.605 356.445 376.728C356.321 376.728 356.321 376.852 356.321 376.976C356.321 377.348 356.445 377.596 356.693 377.843C357.809 378.339 359.049 378.463 360.289 377.967C359.049 377.224 357.933 376.728 356.693 376.605Z" fill="#718497"></path> <path d="M360.784 378.215C359.668 377.596 357.684 375.49 357.808 374.375C357.932 374.003 358.18 373.755 358.552 373.755C358.924 373.755 359.296 373.879 359.544 374.003C360.66 374.994 360.908 377.843 360.908 377.967C360.908 378.091 360.908 378.091 360.784 378.215C360.784 378.339 360.784 378.339 360.784 378.215ZM358.676 374.251C358.304 374.251 358.18 374.375 358.18 374.499C358.056 375.118 359.296 376.852 360.412 377.596C360.288 376.481 359.916 375.366 359.172 374.499C359.048 374.251 358.924 374.251 358.676 374.251Z" fill="#718497"></path> <path opacity="0.2" d="M370.951 356.784L360.66 357.899L361.652 369.42L372.066 368.305L370.951 356.784Z" fill="black"></path> <path opacity="0.2" d="M423.89 355.05H413.848L414.22 367.066H424.386L423.89 355.05Z" fill="black"></path> <path d="M354.709 368.057L377.15 364.836L376.406 358.643L353.222 361.616L354.709 368.057Z" fill="#718497"></path> <path opacity="0.6" d="M354.709 368.057L377.15 364.836L376.406 358.643L353.222 361.616L354.709 368.057Z" fill="white"></path> <path d="M407.401 365.208H429.098V358.643L406.657 358.271L407.401 365.208Z" fill="#718497"></path> <path opacity="0.6" d="M407.401 365.208H429.098V358.643L406.657 358.271L407.401 365.208Z" fill="white"></path> <path opacity="0.2" d="M389.175 202.93C386.82 209.248 384.836 217.176 383.224 225.971C381.736 205.531 387.687 183.977 387.687 183.977L389.175 202.93Z" fill="black"></path> <path d="M387.192 58.7377C383.349 64.0644 371.199 64.9315 371.199 64.9315C371.199 64.9315 363.388 64.436 364.504 61.8346C368.719 60.2242 370.331 57.7467 370.703 55.0214C370.827 53.411 370.579 51.6768 370.083 49.9425C369.835 49.0754 369.463 48.2082 369.091 47.2172L381.365 33.4669C380.993 41.1473 381.365 54.6498 387.192 58.7377Z" fill="#FFD5A8"></path> <path opacity="0.2" d="M379.382 41.1473C380.621 49.9426 374.05 53.9066 370.579 55.1454C370.703 53.535 370.455 51.8007 369.959 50.0665L379.382 41.1473Z" fill="black"></path> <path d="M354.833 13.1513C354.833 13.1513 351.858 26.7777 358.8 32.5999C365.743 38.4221 367.479 12.6558 367.479 12.6558L354.833 13.1513Z" fill="#263238"></path> <path d="M379.381 45.1114C375.538 49.9425 369.587 50.9336 364.627 48.9515C361.404 47.7128 358.676 45.2352 357.065 41.8906C356.817 41.3951 356.693 41.0234 356.445 40.5279C353.345 31.8566 353.221 16.9914 362.52 12.0364C369.091 8.44394 377.397 10.9215 380.993 17.6108C381.985 19.4689 382.605 21.5748 382.605 23.6807C383.101 33.7147 383.844 39.5369 379.381 45.1114Z" fill="#FFD5A8"></path> <path d="M367.975 28.0164C368.099 28.7597 367.727 29.503 367.107 29.6268C366.611 29.6268 366.116 29.0075 365.992 28.2642C365.868 27.5209 366.239 26.7777 366.859 26.6538C367.355 26.6538 367.851 27.2732 367.975 28.0164Z" fill="#263238"></path> <path d="M358.8 29.0074C358.924 29.7507 358.552 30.494 357.933 30.6178C357.437 30.6178 356.941 29.9985 356.817 29.2552C356.693 28.5119 357.065 27.7687 357.685 27.6448C358.304 27.5209 358.8 28.1403 358.8 29.0074Z" fill="#263238"></path> <path d="M361.776 29.0074C361.032 31.6089 360.041 33.9625 358.677 36.3162C359.917 37.0594 361.28 37.1833 362.644 36.6878L361.776 29.0074Z" fill="#D58745"></path> <path d="M370.455 24.7956C370.331 24.7956 370.083 24.7956 369.959 24.6717C369.215 23.8046 367.975 23.3091 366.735 23.433C366.487 23.433 366.239 23.3091 366.239 23.0613C366.239 22.8136 366.363 22.5658 366.611 22.5658C368.099 22.4419 369.587 22.9375 370.703 24.1762C370.827 24.3001 370.827 24.6717 370.703 24.7956C370.579 24.6717 370.579 24.7956 370.455 24.7956Z" fill="#263238"></path> <path d="M354.586 26.1582C354.462 26.1582 354.462 26.1582 354.338 26.1582C354.09 26.0343 353.966 25.7866 354.09 25.5388C354.586 24.0523 355.701 22.9374 357.189 22.5658C357.437 22.5658 357.685 22.6897 357.809 22.9374C357.809 23.1852 357.685 23.4329 357.437 23.5568C356.321 23.9284 355.329 24.7956 354.958 26.0343C354.834 26.1582 354.71 26.1582 354.586 26.1582Z" fill="#263238"></path> <path d="M374.174 12.1603L373.926 16.6198C375.414 17.3631 376.405 18.8496 375.785 20.5839C374.546 24.3002 377.025 29.9985 379.877 32.1044C379.877 32.1044 379.877 30.494 381.241 30.8656C382.604 31.1134 382.728 39.537 380.249 43.6249C380.249 43.6249 383.968 39.7847 385.828 30.9895C387.44 22.8136 387.316 16.1243 385.58 13.0274L374.174 12.1603Z" fill="#263238"></path> <path d="M387.812 31.3611C386.944 33.7148 385.209 35.5729 382.853 36.6878C379.878 38.0504 377.77 35.449 378.266 32.3521C378.638 29.6268 380.621 25.415 383.969 25.415C387.192 25.415 388.928 28.512 387.812 31.3611Z" fill="#FFD5A8"></path> <path d="M373.926 16.4959C373.926 16.4959 368.595 16.0004 363.76 17.4869C358.925 18.9734 354.957 17.8585 354.957 17.8585C354.957 17.8585 350.494 8.93944 356.445 3.48888C362.272 -1.96169 372.067 0.144207 375.166 2.00235C378.39 3.8605 371.943 3.48888 371.943 3.48888C371.943 3.48888 382.233 5.47089 386.82 9.31106C391.284 13.2751 390.168 19.7167 389.3 20.8316C388.308 21.9465 387.564 19.4689 387.564 19.4689C387.564 19.4689 385.333 20.8316 381.365 20.7077C377.398 20.8316 379.01 17.4869 373.926 16.4959Z" fill="#263238"></path> <path d="M363.14 39.908C363.884 41.0229 364.875 43.3765 364.875 43.3765C365.123 43.3765 365.371 43.2527 365.495 43.2527C368.471 42.5094 369.587 41.1468 369.959 39.908C370.207 39.1647 370.083 38.5454 369.959 38.0499C369.835 37.4305 369.587 37.0588 369.587 37.0588C368.223 38.4215 365.495 39.4125 364.008 39.7841C363.512 39.7841 363.14 39.908 363.14 39.908Z" fill="#263238"></path> <path d="M364.132 39.6608L364.628 40.6518C367.479 39.9086 369.339 39.0415 369.959 37.9266C369.835 37.3072 369.587 36.9355 369.587 36.9355C368.347 38.2982 365.62 39.1653 364.132 39.6608Z" fill="white"></path> <path d="M365.619 43.1293C368.595 42.3861 369.711 41.0234 370.082 39.7847C369.091 40.0324 367.851 40.5279 366.983 41.2712C366.239 41.8906 365.867 42.5099 365.619 43.1293Z" fill="#DE5753"></path> <path d="M384.092 54.8976C384.092 54.8976 379.877 60.7198 372.562 64.3122C372.562 64.3122 370.083 61.2153 369.711 57.9945C369.711 57.9945 365.123 60.2243 363.14 62.454C363.14 62.454 363.512 67.2852 366.115 70.506L372.438 66.0465L380.125 71.6209C380.125 71.6209 390.167 65.1793 392.399 58.49L384.092 54.8976Z" fill="#718497"></path> <path opacity="0.4" d="M384.092 54.8976C384.092 54.8976 379.877 60.7198 372.562 64.3122C372.562 64.3122 370.083 61.2153 369.711 57.9945C369.711 57.9945 365.123 60.2243 363.14 62.454C363.14 62.454 363.512 67.2852 366.115 70.506L372.438 66.0465L380.125 71.6209C380.125 71.6209 390.167 65.1793 392.399 58.49L384.092 54.8976Z" fill="white"></path> <path opacity="0.6" d="M392.904 98.3663L380.453 99.7025L381.367 108.201L393.817 106.865L392.904 98.3663Z" fill="white"></path> <path d="M384.465 95.0335L385.705 99.1214C385.829 99.6169 386.449 99.9886 386.944 99.8647C387.44 99.7408 387.812 99.3692 387.812 98.8737L388.432 94.1664L384.465 95.0335Z" fill="#718497"></path> <path d="M361.814 88.3176L249.597 88.4382L249.682 168.038L361.9 167.918L361.814 88.3176Z" fill="#FF4E22"></path> <path opacity="0.1" d="M361.814 88.3176L249.597 88.4382L249.682 168.038L361.9 167.918L361.814 88.3176Z" fill="#263238"></path> <path opacity="0.2" d="M249.84 167.985L287.965 167.944L287.879 88.344L249.754 88.385L249.84 167.985Z" fill="#263238"></path> <path d="M252.337 162.588C255.214 156.838 257.912 151.267 260.789 145.518L269.062 128.448L277.154 111.198C279.852 105.448 282.549 99.698 285.247 93.9481C282.369 99.5183 279.672 105.268 276.795 111.018L268.522 128.088L260.43 145.338C257.732 151.088 255.034 156.838 252.337 162.588Z" fill="#FF4E22"></path> <path d="M252.337 93.9481C255.034 99.698 257.732 105.448 260.43 111.198L268.702 128.448L276.974 145.518C279.672 151.267 282.549 156.838 285.427 162.588C282.729 156.838 280.032 151.088 277.334 145.338L269.062 128.088L260.789 111.018C257.912 105.268 255.034 99.698 252.337 93.9481Z" fill="#FF4E22"></path> <path opacity="0.7" d="M274.458 108.862H273.019L271.76 107.065L270.681 108.862H269.962H269.242H268.163L267.804 108.323L267.264 108.862H266.185H265.826H265.466L265.286 108.503L264.926 108.862L264.387 108.143L263.668 108.862H262.948V88.5576H274.458V108.862Z" fill="white"></path> <path d="M340.816 151.268H339.917V162.768H340.816V151.268Z" fill="#263238"></path> <path d="M342.794 151.268H341.895V162.767H342.794V151.268Z" fill="#263238"></path> <path d="M344.587 151.268L343.688 151.269L343.701 162.768L344.6 162.767L344.587 151.268Z" fill="#263238"></path> <path d="M346.564 151.268L345.665 151.269L345.678 162.768L346.578 162.767L346.564 151.268Z" fill="#263238"></path> <path d="M348.549 151.268H347.649V162.767H348.549V151.268Z" fill="#263238"></path> <path d="M350.52 151.267L349.621 151.268L349.635 162.768L350.534 162.767L350.52 151.267Z" fill="#263238"></path> <path d="M352.5 151.267L351.601 151.268L351.614 162.768L352.513 162.767L352.5 151.267Z" fill="#263238"></path> <path d="M354.483 151.268H353.584V162.767H354.483V151.268Z" fill="#263238"></path> <path d="M356.282 151.268H355.383V162.767H356.282V151.268Z" fill="#263238"></path> <path d="M331.823 161.869L334.88 162.767H327.507L330.564 161.869V157.736C328.406 157.377 327.507 155.221 327.507 151.447H334.88C334.88 155.221 333.981 157.557 331.823 157.736V161.869Z" fill="#263238"></path> <path d="M325.889 157.198H324.091V162.768H319.235V157.198H317.257L321.573 151.268L325.889 157.198Z" fill="#263238"></path> <path opacity="0.1" d="M361.856 167.978V162.408L287.943 152.346V167.978H361.856Z" fill="#263238"></path> <path d="M294.411 104.711L296.211 119.319L297.989 104.711H299.789L297.112 123.676H295.287L292.658 104.711H294.411ZM302.181 104.711V123.676H300.429V104.711H302.181ZM304.905 113.236H306.708V106.513H304.905V113.236ZM306.708 104.711C307.133 104.711 307.535 104.909 307.915 105.304C308.294 105.698 308.483 106.102 308.483 106.513V123.676H306.708V114.987H304.905V123.676H303.152V106.513C303.152 106.102 303.342 105.698 303.723 105.304C304.101 104.909 304.495 104.711 304.905 104.711H306.708ZM309.432 121.924H311.184V123.676H309.432V121.924ZM313.933 121.924H315.733V106.513H313.933V121.924ZM312.178 104.711H315.733C316.16 104.711 316.562 104.909 316.941 105.304C317.319 105.698 317.508 106.102 317.508 106.513V121.924C317.508 123.092 316.932 123.676 315.78 123.676H312.178V104.711ZM318.432 123.676V104.711H323.147V106.513H320.187V113.236H322.791V114.987H320.187V121.924H323.147V123.676H318.432ZM325.54 104.711V121.924H328.147V123.676H323.787V104.711H325.54ZM330.398 104.711V123.676H328.642V104.711H330.398ZM332.838 104.711L334.638 119.319L336.413 104.711H338.213L335.536 123.676H333.714L331.082 104.711H332.838ZM338.853 123.676V104.711H343.568V106.513H340.605V113.236H343.212V114.987H340.605V121.924H343.568V123.676H338.853ZM345.961 113.236H347.761V106.513H345.961V113.236ZM347.761 123.676V114.987H345.961V123.676H344.208V104.711H347.761C348.187 104.711 348.59 104.909 348.968 105.304C349.349 105.698 349.539 106.102 349.539 106.513V113.236C349.539 113.41 349.459 113.592 349.299 113.781C349.142 113.97 348.953 114.111 348.732 114.206C348.984 114.301 349.182 114.427 349.324 114.584C349.467 114.742 349.539 114.955 349.539 115.224V123.676H347.761ZM351.906 104.711L353.706 112.265L355.484 104.711H357.284L354.608 115.034V123.676H352.783V115.034L350.154 104.711H351.906Z" fill="white"></path> <path opacity="0.4" d="M384.465 95.0335L385.705 99.1214C385.829 99.6169 386.449 99.9886 386.944 99.8647C387.44 99.7408 387.812 99.3692 387.812 98.8737L388.432 94.1664L384.465 95.0335Z" fill="black"></path> <path d="M393.639 106.802C393.639 106.802 389.052 120.676 387.069 123.649C385.085 126.622 334.005 139.877 334.005 139.877C334.005 139.877 329.665 137.647 327.062 137.895C324.334 138.143 313.796 140.62 313.548 142.602C313.3 144.584 319.003 153.379 320.243 154.123C321.607 154.866 335.121 152.76 336.608 149.291C336.608 149.291 388.804 139.877 393.763 137.895C398.723 135.913 409.261 112.624 409.261 112.624L393.639 106.802Z" fill="#FFD5A8"></path> <path d="M406.781 58.1183C414.716 58.6138 421.535 75.7088 420.295 89.4591C418.931 103.209 406.285 126.622 406.285 126.622L388.68 117.951C388.68 117.951 393.143 102.218 398.102 87.477C403.061 72.488 400.706 57.7467 406.781 58.1183Z" fill="#718497"></path> <path opacity="0.4" d="M406.781 58.1183C414.716 58.6138 421.535 75.7088 420.295 89.4591C418.931 103.209 406.285 126.622 406.285 126.622L388.68 117.951C388.68 117.951 393.143 102.218 398.102 87.477C403.061 72.488 400.706 57.7467 406.781 58.1183Z" fill="white"></path> <path d="M386.448 119.437L388.432 116.588L409.013 123.525L408.021 128.728L386.448 119.437Z" fill="#718497"></path> <path opacity="0.3" d="M386.448 119.437L388.432 116.588L409.013 123.525L408.021 128.728L386.448 119.437Z" fill="white"></path> <path d="M240.523 169.483H199.857V149.044C199.857 147.805 200.849 146.814 202.089 146.814H238.415C239.655 146.814 240.647 147.805 240.647 149.044V169.483H240.523Z" fill="#718497"></path> <path opacity="0.3" d="M240.523 149.167V169.607H199.857V149.167C199.857 147.928 200.849 146.937 202.089 146.937H238.415C239.531 146.937 240.523 147.928 240.523 149.167Z" fill="white"></path> <path opacity="0.4" d="M230.605 149.167V169.607H199.857V149.167C199.857 147.928 200.849 146.937 202.089 146.937H228.497C229.613 146.937 230.605 147.928 230.605 149.167Z" fill="white"></path> <path d="M457.861 175.553H174.069V388.621H457.861V175.553Z" fill="#718497"></path> <path opacity="0.3" d="M457.861 175.553H174.069V388.621H457.861V175.553Z" fill="white"></path> <path opacity="0.4" d="M384.217 175.553H174.069V388.621H384.217V175.553Z" fill="white"></path> <path d="M461.953 169.607V178.031C461.953 179.146 461.085 180.013 459.969 180.013H172.953C171.838 180.013 170.97 179.146 170.97 178.031V169.607C170.97 168.492 171.838 167.625 172.953 167.625H459.969C461.085 167.749 461.953 168.616 461.953 169.607Z" fill="#718497"></path> <path opacity="0.2" d="M387.564 169.607V178.031C387.564 179.146 386.696 180.013 385.581 180.013H172.953C171.838 180.013 170.97 179.146 170.97 178.031V169.607C170.97 168.492 171.838 167.625 172.953 167.625H385.581C386.696 167.749 387.564 168.616 387.564 169.607Z" fill="white"></path> <path d="M498.155 357.899C499.395 355.793 497.659 352.696 495.179 352.573C496.295 349.6 495.179 345.883 492.7 343.901C492.328 343.654 491.956 343.406 491.584 343.406C491.212 343.406 490.716 343.654 490.468 343.901C488.113 345.512 485.881 347.246 483.525 348.856C483.029 349.228 482.409 349.6 482.161 350.219C480.798 352.944 485.881 356.413 483.773 358.766C483.153 359.386 482.161 359.51 481.418 360.005C479.806 360.996 479.558 363.35 478.814 365.084C478.07 366.818 475.343 368.305 474.351 366.571C475.095 364.836 472.863 363.35 471.003 363.226C469.144 362.978 467.16 362.854 466.168 361.12C463.564 363.474 457.613 357.032 457.737 354.431C455.63 354.555 454.142 356.661 453.646 358.643C453.15 360.748 453.398 362.978 453.398 365.084C453.274 369.296 452.034 373.384 452.034 377.596C452.034 380.816 453.398 384.533 456.374 385.771C457.861 386.391 459.473 386.391 460.961 386.391C472.243 386.267 483.649 386.267 494.932 386.143C495.799 386.143 496.543 386.143 497.287 385.771C498.775 385.028 499.147 382.922 499.271 381.188C499.891 373.755 500.511 366.447 501.131 359.014C500.263 358.766 499.271 358.395 498.155 357.899Z" fill="#718497"></path> <path opacity="0.3" d="M498.155 357.899C499.395 355.793 497.659 352.696 495.179 352.573C496.295 349.6 495.179 345.883 492.7 343.901C492.328 343.654 491.956 343.406 491.584 343.406C491.212 343.406 490.716 343.654 490.468 343.901C488.113 345.512 485.881 347.246 483.525 348.856C483.029 349.228 482.409 349.6 482.161 350.219C480.798 352.944 485.881 356.413 483.773 358.766C483.153 359.386 482.161 359.51 481.418 360.005C479.806 360.996 479.558 363.35 478.814 365.084C478.07 366.818 475.343 368.305 474.351 366.571C475.095 364.836 472.863 363.35 471.003 363.226C469.144 362.978 467.16 362.854 466.168 361.12C463.564 363.474 457.613 357.032 457.737 354.431C455.63 354.555 454.142 356.661 453.646 358.643C453.15 360.748 453.398 362.978 453.398 365.084C453.274 369.296 452.034 373.384 452.034 377.596C452.034 380.816 453.398 384.533 456.374 385.771C457.861 386.391 459.473 386.391 460.961 386.391C472.243 386.267 483.649 386.267 494.932 386.143C495.799 386.143 496.543 386.143 497.287 385.771C498.775 385.028 499.147 382.922 499.271 381.188C499.891 373.755 500.511 366.447 501.131 359.014C500.263 358.766 499.271 358.395 498.155 357.899Z" fill="white"></path> <path d="M500.139 321.975H496.296H485.757H481.914H471.375H467.532H456.994H453.15H447.199L447.695 327.302L448.067 331.142L448.811 341.052L449.307 346.75L449.927 354.307L450.175 357.528L450.299 358.519L450.671 362.359L451.043 367.562L451.291 370.782L451.539 374.127L451.91 377.967L452.158 380.816L452.406 384.037L452.53 385.4H459.473H465.3H473.731H479.558H487.989H493.816H500.759L500.883 384.037L501.131 380.816L501.379 377.843L501.751 374.003L501.999 370.659L502.247 367.438L502.619 362.235L502.991 358.395L503.115 357.404L503.363 354.183L503.982 346.626L504.478 340.928L505.222 331.018L505.594 327.178L506.09 321.851H500.139V321.975ZM503.363 325.444L502.371 324.453H503.487L503.363 325.444ZM503.115 328.788L502.991 330.027L498.279 334.734L492.824 329.284L497.659 324.453H498.775L503.115 328.788ZM501.751 345.635L498.279 349.104L492.824 343.653L498.279 338.203L501.999 341.919L501.751 345.635ZM451.539 341.919L455.258 338.203L460.713 343.653L455.258 349.104L451.786 345.635L451.539 341.919ZM496.544 336.469L491.088 341.919L485.633 336.469L491.088 331.018L496.544 336.469ZM487.989 324.453H494.188L491.088 327.55L487.989 324.453ZM489.353 343.653L483.898 349.104L478.442 343.653L483.898 338.203L489.353 343.653ZM471.375 350.838L476.831 345.388L482.286 350.838L476.831 356.289L471.375 350.838ZM474.971 358.023L469.516 363.474L464.061 358.023L469.516 352.573L474.971 358.023ZM483.898 352.573L489.353 358.023L483.898 363.474L478.442 358.023L483.898 352.573ZM476.707 341.919L471.251 336.469L476.707 331.018L482.162 336.469L476.707 341.919ZM474.971 343.653L469.516 349.104L464.061 343.653L469.516 338.203L474.971 343.653ZM462.449 341.919L456.994 336.469L462.449 331.018L467.904 336.469L462.449 341.919ZM462.449 345.388L467.904 350.838L462.449 356.165L456.994 350.714L462.449 345.388ZM467.78 365.084L462.325 370.535L456.87 365.084L462.325 359.634L467.78 365.084ZM469.64 366.818L475.095 372.269L469.64 377.719L464.185 372.269L469.64 366.818ZM471.375 365.084L476.831 359.634L482.286 365.084L476.831 370.535L471.375 365.084ZM483.898 366.818L489.353 372.269L483.898 377.719L478.566 372.269L483.898 366.818ZM491.088 374.003L496.544 379.454L493.072 382.922H489.229L485.757 379.454L491.088 374.003ZM485.633 365.084L491.088 359.634L496.544 365.084L491.088 370.535L485.633 365.084ZM485.633 350.838L491.088 345.388L496.544 350.838L491.088 356.289L485.633 350.838ZM489.353 329.284L483.898 334.734L478.442 329.284L483.278 324.453H484.393L489.353 329.284ZM476.707 327.55L473.607 324.453H479.806L476.707 327.55ZM474.971 329.284L469.516 334.734L464.061 329.284L468.896 324.453H470.012L474.971 329.284ZM465.548 324.453L462.449 327.55L459.349 324.453H465.548ZM455.878 324.453L460.713 329.284L455.258 334.734L450.547 330.027L450.423 328.788L454.638 324.576H455.878V324.453ZM451.167 324.453L450.175 325.444L450.051 324.453H451.167ZM450.795 333.867L453.398 336.469L451.167 338.698L450.795 333.867ZM452.282 351.953L452.034 349.352L453.398 350.714L452.282 351.953ZM452.53 355.298L455.258 352.573L460.713 358.023L455.258 363.474L453.026 361.244L452.53 355.298ZM453.398 365.208V364.96V365.208ZM454.39 376.728L453.646 368.429L455.258 366.818L460.713 372.269L455.258 377.719L454.39 376.728ZM454.886 382.922L454.762 381.684L455.258 381.188L456.994 382.922H454.886ZM456.994 379.454L462.449 374.003L467.904 379.454L464.433 382.922H460.589L456.994 379.454ZM467.78 382.922L469.516 381.188L471.251 382.922H467.78ZM474.847 382.922L471.375 379.454L476.831 374.003L482.286 379.454L478.814 382.922H474.847ZM482.162 382.922L483.898 381.188L485.633 382.922H482.162ZM498.651 382.922H496.42L498.155 381.188L498.651 381.684V382.922ZM499.147 376.728L498.155 377.596L492.7 372.145L498.155 366.694L499.767 368.305L499.147 376.728ZM500.139 364.96V365.208L500.015 365.084L500.139 364.96ZM500.511 361.244L498.279 363.474L492.824 358.023L498.279 352.573L501.007 355.298L500.511 361.244ZM501.255 351.953L500.015 350.714L501.379 349.352L501.255 351.953ZM502.619 333.867L502.247 338.822L500.015 336.593L502.619 333.867Z" fill="#718497"></path> <g opacity="0.6"> <path opacity="0.6" d="M500.139 321.975H496.296H485.757H481.914H471.375H467.532H456.994H453.15H447.199L447.695 327.302L448.067 331.142L448.811 341.052L449.307 346.75L449.927 354.307L450.175 357.528L450.299 358.519L450.671 362.359L451.043 367.562L451.291 370.782L451.539 374.127L451.91 377.967L452.158 380.816L452.406 384.037L452.53 385.4H459.473H465.3H473.731H479.558H487.989H493.816H500.759L500.883 384.037L501.131 380.816L501.379 377.843L501.751 374.003L501.999 370.659L502.247 367.438L502.619 362.235L502.991 358.395L503.115 357.404L503.363 354.183L503.982 346.626L504.478 340.928L505.222 331.018L505.594 327.178L506.09 321.851H500.139V321.975ZM503.363 325.444L502.371 324.453H503.487L503.363 325.444ZM503.115 328.788L502.991 330.027L498.279 334.734L492.824 329.284L497.659 324.453H498.775L503.115 328.788ZM501.751 345.635L498.279 349.104L492.824 343.653L498.279 338.203L501.999 341.919L501.751 345.635ZM451.539 341.919L455.258 338.203L460.713 343.653L455.258 349.104L451.786 345.635L451.539 341.919ZM496.544 336.469L491.088 341.919L485.633 336.469L491.088 331.018L496.544 336.469ZM487.989 324.453H494.188L491.088 327.55L487.989 324.453ZM489.353 343.653L483.898 349.104L478.442 343.653L483.898 338.203L489.353 343.653ZM471.375 350.838L476.831 345.388L482.286 350.838L476.831 356.289L471.375 350.838ZM474.971 358.023L469.516 363.474L464.061 358.023L469.516 352.573L474.971 358.023ZM483.898 352.573L489.353 358.023L483.898 363.474L478.442 358.023L483.898 352.573ZM476.707 341.919L471.251 336.469L476.707 331.018L482.162 336.469L476.707 341.919ZM474.971 343.653L469.516 349.104L464.061 343.653L469.516 338.203L474.971 343.653ZM462.449 341.919L456.994 336.469L462.449 331.018L467.904 336.469L462.449 341.919ZM462.449 345.388L467.904 350.838L462.449 356.165L456.994 350.714L462.449 345.388ZM467.78 365.084L462.325 370.535L456.87 365.084L462.325 359.634L467.78 365.084ZM469.64 366.818L475.095 372.269L469.64 377.719L464.185 372.269L469.64 366.818ZM471.375 365.084L476.831 359.634L482.286 365.084L476.831 370.535L471.375 365.084ZM483.898 366.818L489.353 372.269L483.898 377.719L478.566 372.269L483.898 366.818ZM491.088 374.003L496.544 379.454L493.072 382.922H489.229L485.757 379.454L491.088 374.003ZM485.633 365.084L491.088 359.634L496.544 365.084L491.088 370.535L485.633 365.084ZM485.633 350.838L491.088 345.388L496.544 350.838L491.088 356.289L485.633 350.838ZM489.353 329.284L483.898 334.734L478.442 329.284L483.278 324.453H484.393L489.353 329.284ZM476.707 327.55L473.607 324.453H479.806L476.707 327.55ZM474.971 329.284L469.516 334.734L464.061 329.284L468.896 324.453H470.012L474.971 329.284ZM465.548 324.453L462.449 327.55L459.349 324.453H465.548ZM455.878 324.453L460.713 329.284L455.258 334.734L450.547 330.027L450.423 328.788L454.638 324.576H455.878V324.453ZM451.167 324.453L450.175 325.444L450.051 324.453H451.167ZM450.795 333.867L453.398 336.469L451.167 338.698L450.795 333.867ZM452.282 351.953L452.034 349.352L453.398 350.714L452.282 351.953ZM452.53 355.298L455.258 352.573L460.713 358.023L455.258 363.474L453.026 361.244L452.53 355.298ZM453.398 365.208V364.96V365.208ZM454.39 376.728L453.646 368.429L455.258 366.818L460.713 372.269L455.258 377.719L454.39 376.728ZM454.886 382.922L454.762 381.684L455.258 381.188L456.994 382.922H454.886ZM456.994 379.454L462.449 374.003L467.904 379.454L464.433 382.922H460.589L456.994 379.454ZM467.78 382.922L469.516 381.188L471.251 382.922H467.78ZM474.847 382.922L471.375 379.454L476.831 374.003L482.286 379.454L478.814 382.922H474.847ZM482.162 382.922L483.898 381.188L485.633 382.922H482.162ZM498.651 382.922H496.42L498.155 381.188L498.651 381.684V382.922ZM499.147 376.728L498.155 377.596L492.7 372.145L498.155 366.694L499.767 368.305L499.147 376.728ZM500.139 364.96V365.208L500.015 365.084L500.139 364.96ZM500.511 361.244L498.279 363.474L492.824 358.023L498.279 352.573L501.007 355.298L500.511 361.244ZM501.255 351.953L500.015 350.714L501.379 349.352L501.255 351.953ZM502.619 333.867L502.247 338.822L500.015 336.593L502.619 333.867Z" fill="white"></path> </g> <path d="M446.083 326.682H507.454C508.569 326.682 509.437 325.815 509.437 324.7V321.851C509.437 320.736 508.569 319.869 507.454 319.869H446.083C444.967 319.869 444.099 320.736 444.099 321.851V324.7C443.975 325.815 444.967 326.682 446.083 326.682Z" fill="#718497"></path> <path d="M502.742 388.621H450.794C449.678 388.621 448.811 387.754 448.811 386.639V383.789C448.811 382.675 449.678 381.807 450.794 381.807H502.742C503.858 381.807 504.726 382.675 504.726 383.789V386.639C504.726 387.754 503.858 388.621 502.742 388.621Z" fill="#718497"></path> <path d="M174.814 367.066L167.003 368.429L163.779 357.775L160.928 347.989L169.854 344.892L172.458 356.66L174.814 367.066Z" fill="#E4897B"></path> <path opacity="0.2" d="M172.582 356.908L163.779 358.023L160.928 348.113L169.854 344.892L172.582 356.908Z" fill="black"></path> <path d="M122.618 370.659H114.683L113.319 359.51L112.203 349.352L121.626 347.741L122.122 359.881L122.618 370.659Z" fill="#E4897B"></path> <path opacity="0.2" d="M122.122 360.005L113.319 359.634L112.203 349.352L121.626 347.741L122.122 360.005Z" fill="black"></path> <path d="M133.404 386.391C132.164 385.4 130.677 384.533 129.189 384.037C129.189 384.037 124.602 379.454 122.37 365.704L116.295 364.093C114.187 363.598 111.956 364.465 110.84 366.199C110.716 366.447 110.592 366.695 110.468 366.942C110.096 368.429 109.972 369.915 109.848 371.402C109.228 376.109 109.724 386.515 109.724 386.515H110.84L111.336 376.976C111.46 373.755 113.939 377.472 114.683 381.064C115.427 384.533 116.915 388.249 123.982 388.373C132.04 388.744 135.512 388.373 133.404 386.391Z" fill="#263238"></path> <path d="M186.096 385.524C184.856 384.533 183.368 383.665 181.88 383.17C181.88 383.17 177.293 378.587 175.061 364.836L168.986 363.226C166.879 362.73 164.647 363.598 163.531 365.332C163.407 365.58 163.283 365.827 163.159 366.075C162.787 367.562 162.663 369.048 162.539 370.535C161.919 375.242 162.415 385.648 162.415 385.648H163.531L164.027 376.109C164.151 372.888 166.631 376.605 167.375 380.197C168.118 383.665 169.606 387.382 176.673 387.506C184.732 387.877 188.203 387.506 186.096 385.524Z" fill="#263238"></path> <path d="M173.325 350.714L160.431 352.944C147.413 320.612 138.239 293.731 131.668 271.31C128.196 259.294 125.221 248.516 123.113 238.978L123.485 274.159V353.316H110.839C79.1 202.187 101.541 167.749 101.541 167.749L139.479 161.431C140.966 167.13 141.958 176.42 142.702 182.738L144.438 195.373L159.316 272.053L173.325 350.714Z" fill="#718497"></path> <g opacity="0.4"> <path opacity="0.4" d="M173.325 350.714L160.431 352.944C147.413 320.612 138.239 293.731 131.668 271.31C128.196 259.294 125.221 248.516 123.113 238.978L123.485 274.159V353.316H110.839C79.1 202.187 101.541 167.749 101.541 167.749L139.479 161.431C140.966 167.13 141.958 176.42 142.702 182.738L144.438 195.373L159.316 272.053L173.325 350.714Z" fill="white"></path> </g> <path d="M184.608 124.144L197.378 111.509C197.378 111.509 197.874 108.164 199.114 107.173C200.354 106.182 209.157 103.085 210.272 103.705C211.388 104.448 212.876 111.509 211.388 112.872C209.9 114.11 201.842 115.845 201.098 115.721L187.212 132.196L184.608 124.144Z" fill="#FFD5A8"></path> <path d="M138.735 101.104C144.314 104.077 163.903 131.453 166.755 132.816C169.606 134.178 191.799 116.216 191.799 116.216L195.518 122.534C195.518 122.534 177.417 148.177 167.126 146.938C156.836 145.699 137.247 124.021 137.247 124.021L138.735 101.104Z" fill="#263238"></path> <path opacity="0.4" d="M138.735 101.104C144.314 104.077 163.903 131.453 166.755 132.816C169.606 134.178 191.799 116.216 191.799 116.216L195.518 122.534C195.518 122.534 177.417 148.177 167.126 146.938C156.836 145.699 137.247 124.021 137.247 124.021L138.735 101.104Z" fill="white"></path> <path d="M190.559 116.96L192.046 115.473L196.138 122.286L194.65 125.012L190.559 116.96Z" fill="#718497"></path> <path opacity="0.2" d="M145.058 132.073C140.471 127.737 137.123 124.021 137.123 124.021L137.495 118.57L139.231 113.243C139.231 113.243 147.041 120.428 145.058 132.073Z" fill="black"></path> <path opacity="0.2" d="M131.668 271.31C128.197 259.294 125.469 248.516 123.361 238.978C123.361 238.978 123.609 220.52 125.841 205.284C125.841 205.284 131.42 248.764 131.668 271.31Z" fill="black"></path> <path d="M140.595 159.078C142.082 131.825 141.462 116.836 140.719 109.279C139.975 101.351 138.735 100.98 138.735 100.98C138.735 100.98 130.056 100.112 122.493 100.236C116.666 100.484 110.839 101.103 105.136 102.095C99.6809 102.962 94.3497 104.324 89.0186 105.935C89.8864 108.412 90.7543 110.766 91.4982 113.12C92.49 116.093 93.3579 118.818 94.1018 121.419C95.5895 126.25 96.7054 130.338 97.6972 134.055C100.549 145.575 101.169 152.884 101.789 162.546C101.789 162.546 92.2421 187.445 90.3823 205.655L121.997 209.124L126.337 190.79L130.676 209.743L148.405 203.549L140.595 159.078Z" fill="#263238"></path> <path opacity="0.4" d="M140.595 159.078C142.082 131.825 141.462 116.836 140.719 109.279C139.975 101.351 138.735 100.98 138.735 100.98C138.735 100.98 130.056 100.112 122.493 100.236C116.666 100.484 110.839 101.103 105.136 102.095C99.6809 102.962 94.3497 104.324 89.0186 105.935C89.8864 108.412 90.7543 110.766 91.4982 113.12C92.49 116.093 93.3579 118.818 94.1018 121.419C95.5895 126.25 96.7054 130.338 97.6972 134.055C100.549 145.575 101.169 152.884 101.789 162.546C101.789 162.546 92.2421 187.445 90.3823 205.655L121.997 209.124L126.337 190.79L130.676 209.743L148.405 203.549L140.595 159.078Z" fill="white"></path> <path d="M107.863 98.8737C107.863 98.8737 112.451 95.2813 120.509 98.1304L121.625 102.218C121.625 102.218 114.682 104.82 111.087 104.2C107.615 103.457 107.863 98.8737 107.863 98.8737Z" fill="#718497"></path> <path opacity="0.2" d="M107.863 98.8737C107.863 98.8737 112.451 95.2813 120.509 98.1304L121.625 102.218C121.625 102.218 114.682 104.82 111.087 104.2C107.615 103.457 107.863 98.8737 107.863 98.8737Z" fill="black"></path> <path opacity="0.2" d="M99.1856 140.744C98.8136 138.638 98.3177 136.408 97.6978 134.055C97.3259 132.568 96.83 130.958 96.458 129.223C97.6978 125.012 98.9376 128.356 98.9376 128.356C98.9376 128.356 100.053 133.435 99.1856 140.744Z" fill="black"></path> <path d="M121.998 101.971C121.626 101.723 121.254 101.599 120.758 101.475C119.89 100.732 118.774 99.1214 118.774 94.9096C118.774 93.547 118.898 91.9366 119.27 90.0784L107.74 87.9725C107.74 87.9725 111.707 95.6529 108.36 101.475C107.244 101.971 106.624 102.714 106.624 103.581C107.492 110.27 121.75 116.588 121.75 116.588C121.75 116.588 128.941 105.811 121.998 101.971Z" fill="#FFD5A8"></path> <path opacity="0.2" d="M119.394 90.0784C119.147 91.9366 119.023 93.547 118.899 94.9096C111.088 94.9096 107.864 87.9725 107.864 87.9725L119.394 90.0784Z" fill="black"></path> <path d="M114.311 52.1723C114.311 52.1723 127.824 50.4381 130.304 61.3392C132.784 72.2403 124.353 78.1864 124.353 78.1864L114.311 52.1723Z" fill="#263238"></path> <path d="M113.071 57.9945C123.113 57.499 126.585 62.5779 127.824 72.8597C129.436 85.6189 127.081 94.9097 114.435 92.9276C97.3252 90.0785 96.4573 58.8616 113.071 57.9945Z" fill="#FFD5A8"></path> <path d="M121.378 72.6119C121.378 72.6119 122.866 75.0895 124.477 76.576C124.477 76.576 123.734 77.9386 121.874 77.8147L121.378 72.6119Z" fill="#D4827D"></path> <path d="M115.179 72.1164C115.303 72.9835 114.807 73.6029 114.311 73.7268C113.815 73.7268 113.319 73.1074 113.195 72.3641C113.071 71.497 113.567 70.8776 114.063 70.7537C114.683 70.6298 115.179 71.3731 115.179 72.1164Z" fill="#263238"></path> <path d="M113.814 70.7538L115.55 69.8866C115.55 70.0105 114.806 71.497 113.814 70.7538Z" fill="#263238"></path> <path d="M125.345 71.1254C125.469 71.9926 124.973 72.612 124.477 72.7358C123.981 72.7358 123.485 72.1165 123.361 71.3732C123.237 70.5061 123.733 69.8867 124.229 69.7628C124.849 69.7628 125.345 70.3822 125.345 71.1254Z" fill="#263238"></path> <path d="M123.98 69.7628L125.716 68.8956C125.716 69.0195 124.972 70.506 123.98 69.7628Z" fill="#263238"></path> <path d="M114.682 65.3031C114.682 65.3031 111.831 65.0554 110.467 67.0374" stroke="#263238" stroke-width="0.6862" stroke-miterlimit="10" stroke-linecap="round" stroke-linejoin="round"></path> <path d="M121.997 64.4361C121.997 64.4361 123.733 63.6928 125.964 65.0555" stroke="#263238" stroke-width="0.6862" stroke-miterlimit="10" stroke-linecap="round" stroke-linejoin="round"></path> <path d="M103.029 75.3372C103.029 75.3372 107.244 66.9136 106.252 60.5959C106.252 60.5959 125.593 51.429 127.701 71.497C127.701 71.497 128.693 53.5349 111.459 54.1543C94.2259 54.6498 95.7137 79.7968 105.012 86.8577C104.888 86.7338 100.425 80.6639 103.029 75.3372Z" fill="#263238"></path> <path d="M115.922 51.4291C115.922 51.4291 124.105 49.4471 126.461 51.553C128.816 53.6589 112.203 69.0195 103.524 70.6299C103.524 70.6299 100.549 80.2923 102.904 84.7518C102.904 84.7518 93.1099 81.2833 92.614 66.4181C92.1181 51.553 107.864 45.9785 115.922 51.4291Z" fill="#263238"></path> <path d="M104.764 77.4431C104.64 75.8327 102.78 73.2313 99.8049 73.7268C96.7053 74.2223 95.5895 80.6638 103.4 81.7787C104.516 81.9026 105.136 80.7877 104.764 77.4431Z" fill="#FFD5A8"></path> <path d="M100.425 57.2512C100.425 57.2512 96.9534 48.5799 87.9028 49.1993C78.8522 49.8187 77.3644 64.0644 82.1997 74.5939C87.0349 85.1234 83.8114 88.592 83.8114 88.592C83.8114 88.592 88.8946 87.9726 88.8946 78.558C88.8946 78.558 89.3906 81.6549 89.2666 84.6279C89.2666 84.6279 92.738 79.7967 89.3906 70.6299C86.0431 61.463 96.5814 65.6748 96.5814 65.6748L100.425 57.2512Z" fill="#263238"></path> <path d="M125.717 52.2961C125.717 52.2961 121.378 66.2942 109.724 70.3821" stroke="#263238" stroke-width="0.6862" stroke-miterlimit="10" stroke-linecap="round" stroke-linejoin="round"></path> <path d="M114.062 81.4071C114.062 81.4071 116.418 83.8847 119.766 83.7608" stroke="#263238" stroke-width="0.6862" stroke-miterlimit="10" stroke-linecap="round" stroke-linejoin="round"></path> <path d="M107.863 98.8736C107.863 98.8736 109.971 103.085 116.914 106.058L119.766 110.642V105.315C119.766 105.315 121.129 101.475 120.51 98.1304L122.865 102.59C122.865 102.59 124.973 102.838 125.717 105.563C126.461 108.288 122.493 117.951 122.493 117.951C122.493 117.951 109.723 113.367 106.872 107.669C104.764 103.457 107.244 102.342 107.244 102.342L107.863 98.8736Z" fill="#718497"></path> <path d="M124.477 121.419C124.477 121.915 124.105 122.286 123.609 122.286C123.113 122.286 122.741 121.915 122.741 121.419C122.741 120.924 123.113 120.552 123.609 120.552C124.105 120.428 124.477 120.924 124.477 121.419Z" fill="#263238"></path> <path d="M126.709 135.789C126.709 136.284 126.337 136.656 125.841 136.656C125.346 136.656 124.974 136.284 124.974 135.789C124.974 135.293 125.346 134.922 125.841 134.922C126.337 134.922 126.709 135.17 126.709 135.789Z" fill="#263238"></path> <path d="M127.701 153.132C127.701 153.627 127.329 153.999 126.833 153.999C126.337 153.999 125.965 153.627 125.965 153.132C125.965 152.636 126.337 152.264 126.833 152.264C127.205 152.14 127.701 152.636 127.701 153.132Z" fill="#263238"></path> <path d="M128.445 171.341C128.445 171.837 128.073 172.208 127.577 172.208C127.081 172.208 126.709 171.837 126.709 171.341C126.709 170.846 127.081 170.474 127.577 170.474C128.073 170.474 128.445 170.846 128.445 171.341Z" fill="#263238"></path> <path d="M85.2998 157.096L100.549 147.433C100.549 147.433 101.665 144.212 103.153 143.593C104.517 142.974 113.815 141.735 114.807 142.602C115.675 143.469 115.675 150.778 113.939 151.769C112.204 152.76 104.021 152.636 103.277 152.264L86.0437 165.395L85.2998 157.096Z" fill="#FFD5A8"></path> <path d="M89.0188 106.059C89.0188 106.059 98.9373 120.552 97.5735 132.94L84.3075 154.742L93.2341 150.159L97.3255 157.715C97.3255 157.715 87.0351 173.447 74.0171 169.731C60.9991 166.015 89.0188 106.059 89.0188 106.059Z" fill="#263238"></path> <path opacity="0.4" d="M89.0188 106.059C89.0188 106.059 98.9373 120.552 97.5735 132.94L84.3075 154.742L93.2341 150.159L97.3255 157.715C97.3255 157.715 87.0351 173.447 74.0171 169.731C60.9991 166.015 89.0188 106.059 89.0188 106.059Z" fill="white"></path> <path d="M92.2422 149.787L97.3254 159.202L98.4412 156.476L94.4738 148.796L92.2422 149.787Z" fill="#718497"></path> <path d="M88.0271 152.76C78.2326 149.415 77.3647 157.963 77.4887 164.28L80.5882 183.853L96.4578 187.445C96.4578 187.445 97.8215 156.105 88.0271 152.76ZM81.828 173.076C80.5882 168.616 77.1168 155.114 84.6796 154.99C92.2424 154.866 96.4578 172.828 92.7383 178.402C89.1429 183.729 84.4316 181.747 81.828 173.076Z" fill="#718497"></path> <path opacity="0.5" d="M88.0271 152.76C78.2326 149.415 77.3647 157.963 77.4887 164.28L80.5882 183.853L96.4578 187.445C96.4578 187.445 97.8215 156.105 88.0271 152.76ZM81.828 173.076C80.5882 168.616 77.1168 155.114 84.6796 154.99C92.2424 154.866 96.4578 172.828 92.7383 178.402C89.1429 183.729 84.4316 181.747 81.828 173.076Z" fill="white"></path> <path d="M77.1162 181.747L86.9107 164.9L109.103 177.411L94.9695 205.779L77.1162 181.747Z" fill="#718497"></path> <path d="M99.8047 203.302L103.772 165.519L120.014 162.794L129.684 172.456L120.633 210.734L99.8047 203.302Z" fill="#718497"></path> <path opacity="0.2" d="M99.8047 203.302L103.772 165.519L120.014 162.794L129.684 172.456L120.633 210.734L99.8047 203.302Z" fill="black"></path> <path d="M113.195 195.373C113.195 195.373 134.52 147.929 140.719 147.805C146.918 147.805 150.266 156.848 150.266 156.848C150.266 156.848 136.628 187.817 129.933 198.223C123.114 208.752 113.195 195.373 113.195 195.373Z" fill="#718497"></path> <path opacity="0.8" d="M113.195 195.373C113.195 195.373 134.52 147.929 140.719 147.805C146.918 147.805 150.266 156.848 150.266 156.848C150.266 156.848 136.628 187.817 129.933 198.223C123.114 208.752 113.195 195.373 113.195 195.373Z" fill="white"></path> <path d="M132.164 202.31C134.148 195.002 149.273 177.164 137.867 171.961C126.461 166.758 111.087 185.959 97.5733 182.242C84.0594 178.526 77.6124 164.28 77.6124 164.28L78.4803 169.112C78.4803 169.112 38.6825 213.088 49.8407 221.511C60.1311 229.315 126.337 242.075 126.337 242.075C137.495 238.111 130.18 209.619 132.164 202.31ZM132.784 194.382C131.296 194.382 126.337 184.968 126.337 184.968C129.436 171.217 136.999 172.332 139.603 177.164C142.082 182.119 134.272 194.382 132.784 194.382Z" fill="#718497"></path> <path opacity="0.7" d="M132.164 202.31C134.148 195.002 149.273 177.164 137.867 171.961C126.461 166.758 111.087 185.959 97.5733 182.242C84.0594 178.526 77.6124 164.28 77.6124 164.28L78.4803 169.112C78.4803 169.112 38.6825 213.088 49.8407 221.511C60.1311 229.315 126.337 242.075 126.337 242.075C137.495 238.111 130.18 209.619 132.164 202.31ZM132.784 194.382C131.296 194.382 126.337 184.968 126.337 184.968C129.436 171.217 136.999 172.332 139.603 177.164C142.082 182.119 134.272 194.382 132.784 194.382Z" fill="white"></path> <path d="M83.8115 155.114L92.7382 150.53L96.8295 158.087C96.8295 158.087 94.8458 161.184 91.3744 164.404C87.035 168.368 83.8115 155.114 83.8115 155.114Z" fill="#848484"></path> </g> <defs> <clipPath id="clip0_2111_32100"> <rect width="517" height="406" fill="white"></rect> </clipPath> </defs> </svg> 